<?xml version='1.0' encoding='utf-8'?>
<svg xmlns="http://www.w3.org/2000/svg" version="1.1" style="display: block;" viewBox="0 0 2048 2048" width="1024" height="1024" preserveAspectRatio="none">
<defs>
	<linearGradient id="Gradient1" gradientUnits="userSpaceOnUse" x1="133.771" y1="2042.24" x2="137.029" y2="2008.46">
		<stop class="stop0" offset="0" stop-opacity="0.886275" stop-color="rgb(138,137,137)" />
		<stop class="stop1" offset="1" stop-opacity="0.964706" stop-color="rgb(174,173,173)" />
	</linearGradient>
	<linearGradient id="Gradient2" gradientUnits="userSpaceOnUse" x1="248.77" y1="2010.84" x2="240.744" y2="2011.14">
		<stop class="stop0" offset="0" stop-opacity="0.937255" stop-color="rgb(245,246,245)" />
		<stop class="stop1" offset="1" stop-opacity="1" stop-color="rgb(252,251,252)" />
	</linearGradient>
	<linearGradient id="Gradient3" gradientUnits="userSpaceOnUse" x1="239.307" y1="2045.13" x2="247.16" y2="1985.51">
		<stop class="stop0" offset="0" stop-opacity="0.937255" stop-color="rgb(160,158,158)" />
		<stop class="stop1" offset="1" stop-opacity="1" stop-color="rgb(220,220,220)" />
	</linearGradient>
</defs>
<path transform="translate(0,0)" fill="#3E8B57" d="M 1360.38 419.5 C 1390.33 418.808 1419.42 418.369 1434.51 448.694 C 1439.87 459.464 1441.06 465.701 1441.12 477.672 C 1441.32 516.995 1441.1 556.3 1441.14 595.616 L 1441.16 853.048 L 1441.14 985.544 C 1441.14 1007.42 1441.79 1030.11 1440.35 1051.91 C 1438.73 1076.36 1417.96 1099.1 1393.03 1100.41 C 1369.55 1101.65 1345.54 1100.97 1321.98 1100.98 L 1180.17 1101 L 704.5 1101.09 C 674.912 1101.36 646.548 1103.78 630.451 1073.8 C 624.411 1062.55 623.247 1054.15 623.14 1041.53 C 622.796 1001.04 623.003 960.55 623.003 920.062 L 623.002 683.098 L 622.922 543.134 C 622.895 519.336 622.181 494.445 623.779 470.86 C 625.176 446.841 645.632 422.848 670.207 420.944 C 691.86 419.266 715.828 419.983 737.73 419.983 L 874.486 419.992 L 1360.38 419.5 z" />
<path transform="translate(0,0)" fill="rgb(255,255,255)" d="M 808.783 816.338 C 839.405 812.031 867.728 833.342 872.073 863.959 C 876.417 894.576 855.14 922.924 824.528 927.305 C 793.864 931.694 765.457 910.372 761.105 879.704 C 756.754 849.035 778.109 820.653 808.783 816.338 z" />
<path transform="translate(0,0)" fill="rgb(255,255,255)" d="M 1242.37 816.276 C 1273.12 813.217 1300.54 835.636 1303.65 866.381 C 1306.76 897.126 1284.39 924.584 1253.65 927.748 C 1222.83 930.919 1195.29 908.48 1192.18 877.661 C 1189.06 846.842 1211.54 819.342 1242.37 816.276 z" />
<path transform="translate(0,0)" fill="rgb(255,255,255)" d="M 1075.38 948.892 L 1098.43 948.996 C 1096.92 957.011 1096.13 961.406 1093.46 969.042 C 1084.37 990.017 1067.47 1004.15 1044.67 1007.84 C 1027.14 1010.82 1009.14 1006.6 994.774 996.117 C 978.168 983.914 971.735 968.77 968.765 949.003 L 991.866 949.045 C 996.342 967.372 1007.46 981.692 1026.84 985.235 C 1037.69 987.199 1048.87 984.756 1057.91 978.449 C 1068.72 970.881 1072.95 961.263 1075.38 948.892 z" />
<path transform="translate(0,0)" fill="#3E8B57" d="M 723.338 1126.38 C 758.084 1125.21 796.586 1125.96 831.577 1125.94 L 1027.23 1125.89 L 1233.97 1125.84 C 1270.57 1125.82 1310.08 1125.03 1346.49 1126.04 C 1390.45 1153.7 1472.76 1254.14 1441.5 1308.76 C 1424.46 1338.53 1393.57 1346.08 1363.7 1329.69 C 1369.59 1414.86 1360.61 1498.78 1322.81 1576.44 C 1311.21 1600.28 1302.22 1614.66 1277.1 1624.88 C 1243.66 1636.2 1166.01 1639.96 1132.09 1625.36 C 1111.24 1616.38 1102.99 1598.04 1095.5 1578.14 C 1066.84 1581.36 1003.33 1580.49 975.476 1578.11 C 969.802 1592.1 963.436 1605.64 951.628 1616.09 C 920.52 1641.17 866.869 1634.97 829.514 1633.58 C 774.017 1631.52 755.034 1600.95 736.688 1554.57 C 707.289 1480.26 700.24 1408.23 706.288 1329.41 C 703.916 1330.65 701.518 1331.83 699.095 1332.96 C 671.529 1345.65 636.658 1332.97 626.046 1305.34 C 604.343 1248.83 662.348 1181.3 700.466 1144.06 C 706.297 1138.37 716.384 1129.39 723.338 1126.38 z" />
<path transform="translate(0,0)" fill="rgb(255,255,255)" d="M 1035.74 1170.9 C 1038.52 1171.21 1057.98 1181.82 1062.46 1183.95 C 1101.89 1202.71 1140.78 1209.91 1183.98 1215.29 C 1176.24 1325.73 1137.95 1413.23 1036.36 1468.76 C 1017.95 1460.08 994.516 1443.56 979.709 1429.67 C 918.465 1372.2 892.372 1296.72 888.368 1215.21 C 946.542 1209.42 984.507 1198.59 1035.74 1170.9 z" />
<path transform="translate(0,0)" fill="#3E8B57" d="M 1109.98 1235.83 C 1115.19 1240.25 1120.83 1246.35 1125.7 1251.34 C 1088.46 1290.83 1046.29 1330.82 1008.02 1370.01 C 995.975 1358.46 983.008 1344.59 971.229 1332.59 C 965.844 1327.05 960.457 1321.17 955.149 1315.53 L 971.458 1299.66 C 983.704 1312.6 996.09 1325.4 1008.61 1338.07 C 1041.92 1303.28 1076.19 1270.06 1109.98 1235.83 z" />
<path transform="translate(0,0)" fill="rgb(255,255,255)" d="M 269.993 2006.05 C 273.501 2006.08 278.783 2005.83 281.648 2007.41 C 285.51 2014.13 283.161 2021.51 277.35 2026.23 C 273.75 2027.47 272.455 2026.75 268.763 2025.8 C 268.119 2022.49 267.674 2023.72 269.047 2021.58 C 272.134 2022.37 272.452 2022.6 275.724 2022.53 L 277.291 2020.66 C 271.452 2017.91 268.496 2020.68 266.597 2013.32 C 267.496 2009.32 267.576 2009.48 269.993 2006.05 z" />
<path transform="translate(0,0)" fill="rgb(214,213,214)" d="M 310.61 2005.41 C 313.762 2005.98 313.739 2006.05 316.651 2007.46 C 318.629 2010.1 318.152 2012.19 318.1 2015.56 C 314.913 2016.12 314.837 2016.41 311.805 2015.54 C 309.882 2012.93 310.52 2008.89 310.61 2005.41 z" />
<path transform="translate(0,0)" fill="rgb(255,255,255)" d="M 350.899 2005.33 C 355.546 2006.84 354.846 2011.14 356.105 2016.02 L 357.662 2016.5 C 360.313 2013.85 360.496 2010.45 361.333 2006.44 L 362.956 2005.92 L 364.589 2007.27 C 365.035 2014.08 366.409 2018.14 358.798 2021.12 C 350.198 2020.07 349.941 2012.1 350.899 2005.33 z" />
<path transform="translate(0,0)" fill="rgb(255,255,255)" d="M 369.901 2006.02 L 375.401 2006.25 C 379.993 2009.01 373.497 2007.4 378.703 2015 C 378.422 2018.47 378.324 2017.58 375.943 2020.88 C 372.166 2020.11 370.231 2020.08 367.849 2017.51 L 369.881 2013.68 L 367.276 2010.92 C 367.138 2008.32 367.646 2008.72 369.901 2006.02 z" />
<path transform="translate(0,0)" fill="rgb(255,255,255)" d="M 346.466 1999.67 L 347.556 2000.84 C 348.176 2006.56 347.356 2015.62 345.637 2021.12 C 337.164 2017.46 341.59 2005.13 346.466 1999.67 z" />
<path transform="translate(0,0)" fill="rgb(214,213,214)" fill-opacity="0.835294" d="M 130.3 2008.76 L 131.214 2006.78 C 136.735 2004.46 138.1 2004.75 142.709 2008.05 L 136.111 2008.63 L 135.125 2007.9 C 132.282 2013.12 137.565 2018.05 131.267 2020.26 L 130.3 2008.76 z" />
</svg>